<svg xmlns="http://www.w3.org/2000/svg" width="68" height="68" fill="none"  stroke="#676767" stroke-width="4" stroke-linecap="round" stroke-linejoin="round" xmlns:v="https://vecta.io/nano"><path d="M2.4 2.887C2.4 7.695-.124 20.25 7.53 20.25c4.396 0 10.653-1.562 11.6-6.463 1.805-9.24-9.407-8.296-15.8-8.296m57.855-.87c4.152.87 5.37 1.8 4.613 5.692-.37 1.896-2.26 5.058-3.887 6.27-2.367 1.762-10.4 2.1-12.647 0C39.887 7.868 59.82-3.107 63.974 4.623M6.232 48.035c.208 8.14 5.815 11.195 13.06 14.567 4.23 1.968 14.282 5.36 18.66 1.93 2.327-1.824 6.178-1.84 7.67-4.34.94-1.573 2.248-1.446 3.887-1.785.75-.155.844-1.977 1.503-2.556 3.683-3.237 8.04-5.416 10.263-9.55"/></svg>