<svg width="86" height="166" viewBox="0 0 86 166" fill="none" xmlns="http://www.w3.org/2000/svg">
<path d="M3 37.5374C7.20329 27.2861 13.5997 19.3232 23.0716 12.163C30.5592 5.92981 38.8256 3 48.657 3C57.914 3 72.534 5.09272 78.5265 15.139C80.7005 23.7233 84.4494 30.6095 82.4139 39.6519C81.9071 41.903 82.3235 43.9229 81.3825 46.1521C80.128 49.1243 78.7021 52.039 77.4158 55.0018C74.8188 60.9837 71.1615 65.8502 67.618 71.2916C65.115 75.1351 60.7691 79.1031 57.1062 81.7859C50.9363 86.3048 45.6695 92.7625 40.2079 98.154C35.4784 102.823 36.5585 111.792 36.5585 117.89C36.5585 122.824 36.5585 127.757 36.5585 132.691" stroke="#676767" stroke-width="6" stroke-linecap="round" stroke-linejoin="round"/>
<path d="M36.1404 156.656C39.7698 156.085 42.2097 163 35.8446 163C33.4518 163 32.9885 161.173 32.9885 159.163C32.9885 156.615 33.3439 156.656 35.8446 156.656" stroke="#676767" stroke-width="6" stroke-linecap="round" stroke-linejoin="round"/>
</svg>
