<svg xmlns="http://www.w3.org/2000/svg" width="68" height="68" fill="none"  stroke="#676767" stroke-width="4" stroke-linecap="round" stroke-linejoin="round" xmlns:v="https://vecta.io/nano"><path d="M5.416 2.934c0 5.062-2.278 18.28 4.632 18.28 3.968 0 9.615-1.645 10.48-6.804 1.63-9.728-8.5-8.734-14.27-8.734m52.2-.914c3.747.915 4.848 1.906 4.164 5.992-.334 1.996-2.04 5.325-3.5 6.6-2.136 1.855-9.388 2.2-11.415 0-8.455-9.177 9.538-20.73 13.287-12.593M66 64.172C57.764 52.72 43.814 42.476 29.415 45.18c-7.192 1.35-12.262 4.974-18.152 8.734C7.6 56.26 4.742 62.28 2 66"/></svg>